{
	"asset":{
		"generator":"Khronos glTF Blender I/O v5.1.19",
		"version":"2.0"
	},
	"scene":0,
	"scenes":[
		{
			"name":"Scene",
			"nodes":[
				0,
				1,
				2
			]
		}
	],
	"nodes":[
		{
			"mesh":0,
			"name":"Cannon_Model"
		},
		{
			"mesh":1,
			"name":"COL1",
			"rotation":[
				0,
				0,
				-1,
				0
			],
			"scale":[
				-1,
				-0.9319237470626831,
				-1.6159241199493408
			],
			"translation":[
				0,
				2.004678249359131,
				-0.620801568031311
			]
		},
		{
			"mesh":2,
			"name":"COL2"
		}
	],
	"materials":[
		{
			"name":"Material.001",
			"pbrMetallicRoughness":{
				"baseColorTexture":{
					"index":0
				},
				"metallicFactor":0,
				"roughnessFactor":0.4000000059604645
			}
		}
	],
	"meshes":[
		{
			"name":"Cylinder.006",
			"primitives":[
				{
					"attributes":{
						"POSITION":0,
						"NORMAL":1,
						"TEXCOORD_0":2
					},
					"indices":3,
					"material":0
				}
			]
		},
		{
			"name":"\u7acb\u65b9\u4f53",
			"primitives":[
				{
					"attributes":{
						"POSITION":4,
						"NORMAL":5,
						"TEXCOORD_0":6
					},
					"indices":7
				}
			]
		},
		{
			"name":"\u7acb\u65b9\u4f53.001",
			"primitives":[
				{
					"attributes":{
						"POSITION":8,
						"NORMAL":9,
						"TEXCOORD_0":10
					},
					"indices":11
				}
			]
		}
	],
	"textures":[
		{
			"sampler":0,
			"source":0
		}
	],
	"images":[
		{
			"mimeType":"image/png",
			"name":"Cannon_Basecolor",
			"uri":"Cannon_Basecolor.png"
		}
	],
	"accessors":[
		{
			"bufferView":0,
			"componentType":5126,
			"count":2654,
			"max":[
				1.0254355669021606,
				2.1412460803985596,
				1.0204867124557495
			],
			"min":[
				-1.0254358053207397,
				0.0012131251860409975,
				-2.2134599685668945
			],
			"type":"VEC3"
		},
		{
			"bufferView":1,
			"componentType":5126,
			"count":2654,
			"type":"VEC3"
		},
		{
			"bufferView":2,
			"componentType":5126,
			"count":2654,
			"type":"VEC2"
		},
		{
			"bufferView":3,
			"componentType":5123,
			"count":9792,
			"type":"SCALAR"
		},
		{
			"bufferView":4,
			"componentType":5126,
			"count":24,
			"max":[
				0.3071167469024658,
				0.15484964847564697,
				0.9965790510177612
			],
			"min":[
				-0.31606125831604004,
				-1.1381782293319702,
				-1.003271460533142
			],
			"type":"VEC3"
		},
		{
			"bufferView":5,
			"componentType":5126,
			"count":24,
			"type":"VEC3"
		},
		{
			"bufferView":6,
			"componentType":5126,
			"count":24,
			"type":"VEC2"
		},
		{
			"bufferView":7,
			"componentType":5123,
			"count":36,
			"type":"SCALAR"
		},
		{
			"bufferView":8,
			"componentType":5126,
			"count":24,
			"max":[
				0.7027039527893066,
				1.4625076055526733,
				1
			],
			"min":[
				-0.7060688734054565,
				0.17770087718963623,
				-1
			],
			"type":"VEC3"
		},
		{
			"bufferView":9,
			"componentType":5126,
			"count":24,
			"type":"VEC3"
		},
		{
			"bufferView":10,
			"componentType":5126,
			"count":24,
			"type":"VEC2"
		},
		{
			"bufferView":11,
			"componentType":5123,
			"count":36,
			"type":"SCALAR"
		}
	],
	"bufferViews":[
		{
			"buffer":0,
			"byteLength":31848,
			"byteOffset":0,
			"target":34962
		},
		{
			"buffer":0,
			"byteLength":31848,
			"byteOffset":31848,
			"target":34962
		},
		{
			"buffer":0,
			"byteLength":21232,
			"byteOffset":63696,
			"target":34962
		},
		{
			"buffer":0,
			"byteLength":19584,
			"byteOffset":84928,
			"target":34963
		},
		{
			"buffer":0,
			"byteLength":288,
			"byteOffset":104512,
			"target":34962
		},
		{
			"buffer":0,
			"byteLength":288,
			"byteOffset":104800,
			"target":34962
		},
		{
			"buffer":0,
			"byteLength":192,
			"byteOffset":105088,
			"target":34962
		},
		{
			"buffer":0,
			"byteLength":72,
			"byteOffset":105280,
			"target":34963
		},
		{
			"buffer":0,
			"byteLength":288,
			"byteOffset":105352,
			"target":34962
		},
		{
			"buffer":0,
			"byteLength":288,
			"byteOffset":105640,
			"target":34962
		},
		{
			"buffer":0,
			"byteLength":192,
			"byteOffset":105928,
			"target":34962
		},
		{
			"buffer":0,
			"byteLength":72,
			"byteOffset":106120,
			"target":34963
		}
	],
	"samplers":[
		{
			"magFilter":9729,
			"minFilter":9987
		}
	],
	"buffers":[
		{
			"byteLength":106192,
			"uri":"NewCannon.bin"
		}
	]
}
